<svg xmlns="http://www.w3.org/2000/svg" viewBox="0 0 1000 360" width="1000" height="360" role="img" aria-label="Step 1: the random rotation">
<title>Step 1: the random rotation</title>
<defs><marker id="arr" viewBox="0 0 10 10" refX="8" refY="5" markerWidth="7" markerHeight="7" orient="auto-start-reverse"><path d="M0,0 L10,5 L0,10 z" fill="context-stroke"/></marker></defs>
<rect x="0.0" y="0.0" width="1000.0" height="360.0" rx="0" fill="#F6F5F0"/>
<text x="32.0" y="44.0" font-family="IBM Plex Sans, Segoe UI, Helvetica, Arial, sans-serif" font-size="22" font-weight="600" fill="#0F1B2D" text-anchor="start">Step 1: the random rotation</text>
<text x="32.0" y="70.0" font-family="IBM Plex Sans, Segoe UI, Helvetica, Arial, sans-serif" font-size="14.5" font-weight="400" fill="#5F6979" text-anchor="start">The same 64-number vector before and after one random rotation (scaled by √d).</text>
<rect x="32.0" y="92.0" width="448.0" height="220.0" rx="10" fill="#FDFCF9" stroke="#E2DFD6" stroke-width="1.5"/>
<text x="48.0" y="118.0" font-family="IBM Plex Sans, Segoe UI, Helvetica, Arial, sans-serif" font-size="14.5" font-weight="600" fill="#0F1B2D" text-anchor="start">Before: a few huge outliers</text>
<line x1="46.0" y1="215.0" x2="466.0" y2="215.0" stroke="#5F6979" stroke-width="1"/>
<line x1="46.0" y1="243.0" x2="466.0" y2="243.0" stroke="#C9CED6" stroke-width="1" stroke-dasharray="4 4"/>
<line x1="46.0" y1="187.0" x2="466.0" y2="187.0" stroke="#C9CED6" stroke-width="1" stroke-dasharray="4 4"/>
<rect x="50.0" y="207.9" width="4.5" height="7.1" rx="1" fill="#2F6DB5"/>
<rect x="56.5" y="215.0" width="4.5" height="8.9" rx="1" fill="#2F6DB5"/>
<rect x="63.0" y="213.5" width="4.5" height="1.5" rx="1" fill="#2F6DB5"/>
<rect x="69.5" y="215.0" width="4.5" height="2.0" rx="1" fill="#2F6DB5"/>
<rect x="76.0" y="215.0" width="4.5" height="1.6" rx="1" fill="#2F6DB5"/>
<rect x="82.5" y="140.3" width="4.5" height="74.7" rx="1" fill="#B4521A"/>
<rect x="89.0" y="215.0" width="4.5" height="7.1" rx="1" fill="#2F6DB5"/>
<rect x="95.5" y="215.0" width="4.5" height="0.8" rx="1" fill="#2F6DB5"/>
<rect x="102.0" y="215.0" width="4.5" height="3.0" rx="1" fill="#2F6DB5"/>
<rect x="108.5" y="203.4" width="4.5" height="11.6" rx="1" fill="#2F6DB5"/>
<rect x="115.0" y="214.2" width="4.5" height="0.8" rx="1" fill="#2F6DB5"/>
<rect x="121.5" y="215.0" width="4.5" height="1.2" rx="1" fill="#2F6DB5"/>
<rect x="128.0" y="215.0" width="4.5" height="1.0" rx="1" fill="#2F6DB5"/>
<rect x="134.5" y="215.0" width="4.5" height="2.3" rx="1" fill="#2F6DB5"/>
<rect x="141.0" y="215.0" width="4.5" height="3.7" rx="1" fill="#2F6DB5"/>
<rect x="147.5" y="215.0" width="4.5" height="1.4" rx="1" fill="#2F6DB5"/>
<rect x="154.0" y="213.3" width="4.5" height="1.7" rx="1" fill="#2F6DB5"/>
<rect x="160.5" y="215.0" width="4.5" height="0.8" rx="1" fill="#2F6DB5"/>
<rect x="167.0" y="211.6" width="4.5" height="3.4" rx="1" fill="#2F6DB5"/>
<rect x="173.5" y="215.0" width="4.5" height="0.7" rx="1" fill="#2F6DB5"/>
<rect x="180.0" y="214.9" width="4.5" height="0.5" rx="1" fill="#2F6DB5"/>
<rect x="186.5" y="209.6" width="4.5" height="5.4" rx="1" fill="#2F6DB5"/>
<rect x="193.0" y="213.1" width="4.5" height="1.9" rx="1" fill="#2F6DB5"/>
<rect x="199.5" y="215.0" width="4.5" height="60.7" rx="1" fill="#B4521A"/>
<rect x="206.0" y="215.0" width="4.5" height="0.6" rx="1" fill="#2F6DB5"/>
<rect x="212.5" y="213.1" width="4.5" height="1.9" rx="1" fill="#2F6DB5"/>
<rect x="219.0" y="208.2" width="4.5" height="6.8" rx="1" fill="#2F6DB5"/>
<rect x="225.5" y="215.0" width="4.5" height="0.9" rx="1" fill="#2F6DB5"/>
<rect x="232.0" y="215.0" width="4.5" height="0.9" rx="1" fill="#2F6DB5"/>
<rect x="238.5" y="211.5" width="4.5" height="3.5" rx="1" fill="#2F6DB5"/>
<rect x="245.0" y="215.0" width="4.5" height="3.1" rx="1" fill="#2F6DB5"/>
<rect x="251.5" y="215.0" width="4.5" height="1.0" rx="1" fill="#2F6DB5"/>
<rect x="258.0" y="211.9" width="4.5" height="3.1" rx="1" fill="#2F6DB5"/>
<rect x="264.5" y="213.0" width="4.5" height="2.0" rx="1" fill="#2F6DB5"/>
<rect x="271.0" y="214.7" width="4.5" height="0.5" rx="1" fill="#2F6DB5"/>
<rect x="277.5" y="212.7" width="4.5" height="2.3" rx="1" fill="#2F6DB5"/>
<rect x="284.0" y="215.0" width="4.5" height="9.9" rx="1" fill="#2F6DB5"/>
<rect x="290.5" y="211.4" width="4.5" height="3.6" rx="1" fill="#2F6DB5"/>
<rect x="297.0" y="215.0" width="4.5" height="3.4" rx="1" fill="#2F6DB5"/>
<rect x="303.5" y="215.0" width="4.5" height="5.8" rx="1" fill="#2F6DB5"/>
<rect x="310.0" y="214.0" width="4.5" height="1.0" rx="1" fill="#2F6DB5"/>
<rect x="316.5" y="166.0" width="4.5" height="49.0" rx="1" fill="#B4521A"/>
<rect x="323.0" y="215.0" width="4.5" height="1.6" rx="1" fill="#2F6DB5"/>
<rect x="329.5" y="215.0" width="4.5" height="3.8" rx="1" fill="#2F6DB5"/>
<rect x="336.0" y="214.9" width="4.5" height="0.5" rx="1" fill="#2F6DB5"/>
<rect x="342.5" y="215.0" width="4.5" height="0.5" rx="1" fill="#2F6DB5"/>
<rect x="349.0" y="210.1" width="4.5" height="4.9" rx="1" fill="#2F6DB5"/>
<rect x="355.5" y="212.4" width="4.5" height="2.6" rx="1" fill="#2F6DB5"/>
<rect x="362.0" y="214.3" width="4.5" height="0.7" rx="1" fill="#2F6DB5"/>
<rect x="368.5" y="211.1" width="4.5" height="3.9" rx="1" fill="#2F6DB5"/>
<rect x="375.0" y="215.0" width="4.5" height="0.7" rx="1" fill="#2F6DB5"/>
<rect x="381.5" y="215.0" width="4.5" height="3.2" rx="1" fill="#2F6DB5"/>
<rect x="388.0" y="213.0" width="4.5" height="2.0" rx="1" fill="#2F6DB5"/>
<rect x="394.5" y="213.0" width="4.5" height="2.0" rx="1" fill="#2F6DB5"/>
<rect x="401.0" y="215.0" width="4.5" height="0.8" rx="1" fill="#2F6DB5"/>
<rect x="407.5" y="215.0" width="4.5" height="2.7" rx="1" fill="#2F6DB5"/>
<rect x="414.0" y="214.2" width="4.5" height="0.8" rx="1" fill="#2F6DB5"/>
<rect x="420.5" y="215.0" width="4.5" height="8.7" rx="1" fill="#2F6DB5"/>
<rect x="427.0" y="212.6" width="4.5" height="2.4" rx="1" fill="#2F6DB5"/>
<rect x="433.5" y="213.3" width="4.5" height="1.7" rx="1" fill="#2F6DB5"/>
<rect x="440.0" y="215.0" width="4.5" height="5.7" rx="1" fill="#2F6DB5"/>
<rect x="446.5" y="214.8" width="4.5" height="0.5" rx="1" fill="#2F6DB5"/>
<rect x="453.0" y="215.0" width="4.5" height="3.4" rx="1" fill="#2F6DB5"/>
<rect x="459.5" y="212.3" width="4.5" height="2.7" rx="1" fill="#2F6DB5"/>
<text x="470.0" y="184.0" font-family="IBM Plex Sans, Segoe UI, Helvetica, Arial, sans-serif" font-size="11" font-weight="400" fill="#5F6979" text-anchor="end">±2</text>
<rect x="520.0" y="92.0" width="448.0" height="220.0" rx="10" fill="#FDFCF9" stroke="#E2DFD6" stroke-width="1.5"/>
<text x="536.0" y="118.0" font-family="IBM Plex Sans, Segoe UI, Helvetica, Arial, sans-serif" font-size="14.5" font-weight="600" fill="#0F1B2D" text-anchor="start">After: every coordinate looks alike</text>
<line x1="534.0" y1="215.0" x2="954.0" y2="215.0" stroke="#5F6979" stroke-width="1"/>
<line x1="534.0" y1="243.0" x2="954.0" y2="243.0" stroke="#C9CED6" stroke-width="1" stroke-dasharray="4 4"/>
<line x1="534.0" y1="187.0" x2="954.0" y2="187.0" stroke="#C9CED6" stroke-width="1" stroke-dasharray="4 4"/>
<rect x="538.0" y="205.0" width="4.5" height="10.0" rx="1" fill="#2F6DB5"/>
<rect x="544.5" y="215.0" width="4.5" height="10.8" rx="1" fill="#2F6DB5"/>
<rect x="551.0" y="202.0" width="4.5" height="13.0" rx="1" fill="#2F6DB5"/>
<rect x="557.5" y="206.7" width="4.5" height="8.3" rx="1" fill="#2F6DB5"/>
<rect x="564.0" y="215.0" width="4.5" height="5.6" rx="1" fill="#2F6DB5"/>
<rect x="570.5" y="215.0" width="4.5" height="2.6" rx="1" fill="#2F6DB5"/>
<rect x="577.0" y="215.0" width="4.5" height="5.0" rx="1" fill="#2F6DB5"/>
<rect x="583.5" y="215.0" width="4.5" height="11.0" rx="1" fill="#2F6DB5"/>
<rect x="590.0" y="215.0" width="4.5" height="2.3" rx="1" fill="#2F6DB5"/>
<rect x="596.5" y="203.1" width="4.5" height="11.9" rx="1" fill="#2F6DB5"/>
<rect x="603.0" y="181.0" width="4.5" height="34.0" rx="1" fill="#2F6DB5"/>
<rect x="609.5" y="200.5" width="4.5" height="14.5" rx="1" fill="#2F6DB5"/>
<rect x="616.0" y="215.0" width="4.5" height="10.3" rx="1" fill="#2F6DB5"/>
<rect x="622.5" y="215.0" width="4.5" height="10.7" rx="1" fill="#2F6DB5"/>
<rect x="629.0" y="210.0" width="4.5" height="5.0" rx="1" fill="#2F6DB5"/>
<rect x="635.5" y="198.2" width="4.5" height="16.8" rx="1" fill="#2F6DB5"/>
<rect x="642.0" y="215.0" width="4.5" height="27.1" rx="1" fill="#2F6DB5"/>
<rect x="648.5" y="215.0" width="4.5" height="1.5" rx="1" fill="#2F6DB5"/>
<rect x="655.0" y="206.8" width="4.5" height="8.2" rx="1" fill="#2F6DB5"/>
<rect x="661.5" y="215.0" width="4.5" height="2.7" rx="1" fill="#2F6DB5"/>
<rect x="668.0" y="215.0" width="4.5" height="1.7" rx="1" fill="#2F6DB5"/>
<rect x="674.5" y="185.5" width="4.5" height="29.5" rx="1" fill="#2F6DB5"/>
<rect x="681.0" y="206.3" width="4.5" height="8.7" rx="1" fill="#2F6DB5"/>
<rect x="687.5" y="190.0" width="4.5" height="25.0" rx="1" fill="#2F6DB5"/>
<rect x="694.0" y="202.6" width="4.5" height="12.4" rx="1" fill="#2F6DB5"/>
<rect x="700.5" y="215.0" width="4.5" height="2.2" rx="1" fill="#2F6DB5"/>
<rect x="707.0" y="215.0" width="4.5" height="3.6" rx="1" fill="#2F6DB5"/>
<rect x="713.5" y="215.0" width="4.5" height="20.1" rx="1" fill="#2F6DB5"/>
<rect x="720.0" y="215.0" width="4.5" height="13.0" rx="1" fill="#2F6DB5"/>
<rect x="726.5" y="215.0" width="4.5" height="9.2" rx="1" fill="#2F6DB5"/>
<rect x="733.0" y="215.0" width="4.5" height="0.5" rx="1" fill="#2F6DB5"/>
<rect x="739.5" y="215.0" width="4.5" height="12.9" rx="1" fill="#2F6DB5"/>
<rect x="746.0" y="206.7" width="4.5" height="8.3" rx="1" fill="#2F6DB5"/>
<rect x="752.5" y="200.6" width="4.5" height="14.4" rx="1" fill="#2F6DB5"/>
<rect x="759.0" y="206.3" width="4.5" height="8.7" rx="1" fill="#2F6DB5"/>
<rect x="765.5" y="203.5" width="4.5" height="11.5" rx="1" fill="#2F6DB5"/>
<rect x="772.0" y="215.0" width="4.5" height="28.0" rx="1" fill="#2F6DB5"/>
<rect x="778.5" y="215.0" width="4.5" height="8.6" rx="1" fill="#2F6DB5"/>
<rect x="785.0" y="215.0" width="4.5" height="23.0" rx="1" fill="#2F6DB5"/>
<rect x="791.5" y="215.0" width="4.5" height="2.8" rx="1" fill="#2F6DB5"/>
<rect x="798.0" y="207.8" width="4.5" height="7.2" rx="1" fill="#2F6DB5"/>
<rect x="804.5" y="211.9" width="4.5" height="3.1" rx="1" fill="#2F6DB5"/>
<rect x="811.0" y="195.4" width="4.5" height="19.6" rx="1" fill="#2F6DB5"/>
<rect x="817.5" y="206.8" width="4.5" height="8.2" rx="1" fill="#2F6DB5"/>
<rect x="824.0" y="215.0" width="4.5" height="16.9" rx="1" fill="#2F6DB5"/>
<rect x="830.5" y="187.8" width="4.5" height="27.2" rx="1" fill="#2F6DB5"/>
<rect x="837.0" y="215.0" width="4.5" height="14.0" rx="1" fill="#2F6DB5"/>
<rect x="843.5" y="215.0" width="4.5" height="33.2" rx="1" fill="#2F6DB5"/>
<rect x="850.0" y="205.4" width="4.5" height="9.6" rx="1" fill="#2F6DB5"/>
<rect x="856.5" y="215.0" width="4.5" height="12.9" rx="1" fill="#2F6DB5"/>
<rect x="863.0" y="202.4" width="4.5" height="12.6" rx="1" fill="#2F6DB5"/>
<rect x="869.5" y="215.0" width="4.5" height="5.2" rx="1" fill="#2F6DB5"/>
<rect x="876.0" y="213.4" width="4.5" height="1.6" rx="1" fill="#2F6DB5"/>
<rect x="882.5" y="206.9" width="4.5" height="8.1" rx="1" fill="#2F6DB5"/>
<rect x="889.0" y="215.0" width="4.5" height="30.9" rx="1" fill="#2F6DB5"/>
<rect x="895.5" y="209.3" width="4.5" height="5.7" rx="1" fill="#2F6DB5"/>
<rect x="902.0" y="210.7" width="4.5" height="4.3" rx="1" fill="#2F6DB5"/>
<rect x="908.5" y="215.0" width="4.5" height="3.2" rx="1" fill="#2F6DB5"/>
<rect x="915.0" y="207.9" width="4.5" height="7.1" rx="1" fill="#2F6DB5"/>
<rect x="921.5" y="214.5" width="4.5" height="0.5" rx="1" fill="#2F6DB5"/>
<rect x="928.0" y="215.0" width="4.5" height="7.4" rx="1" fill="#2F6DB5"/>
<rect x="934.5" y="215.0" width="4.5" height="3.0" rx="1" fill="#2F6DB5"/>
<rect x="941.0" y="204.2" width="4.5" height="10.8" rx="1" fill="#2F6DB5"/>
<rect x="947.5" y="215.0" width="4.5" height="2.4" rx="1" fill="#2F6DB5"/>
<text x="958.0" y="184.0" font-family="IBM Plex Sans, Segoe UI, Helvetica, Arial, sans-serif" font-size="11" font-weight="400" fill="#5F6979" text-anchor="end">±2</text>
<line x1="484.0" y1="200.0" x2="514.0" y2="200.0" stroke="#B4521A" stroke-width="2.5" marker-end="url(#arr)"/>
<text x="499.0" y="186.0" font-family="IBM Plex Sans, Segoe UI, Helvetica, Arial, sans-serif" font-size="18" font-weight="700" fill="#B4521A" text-anchor="middle">Π</text>
<text x="32.0" y="338.0" font-family="IBM Plex Sans, Segoe UI, Helvetica, Arial, sans-serif" font-size="13.5" font-weight="400" fill="#5F6979" text-anchor="start">A rotation keeps lengths and angles, so no information is lost. It only spreads the energy evenly over all coordinates.</text>
</svg>
