<svg xmlns="http://www.w3.org/2000/svg" viewBox="0 0 1000 526" width="1000" height="526" role="img" aria-label="How the KV cache works">
<title>How the KV cache works</title>
<defs><marker id="arr" viewBox="0 0 10 10" refX="8" refY="5" markerWidth="7" markerHeight="7" orient="auto-start-reverse"><path d="M0,0 L10,5 L0,10 z" fill="context-stroke"/></marker></defs>
<rect x="0.0" y="0.0" width="1000.0" height="526.0" rx="0" fill="#F6F5F0"/>
<text x="32.0" y="44.0" font-family="IBM Plex Sans, Segoe UI, Helvetica, Arial, sans-serif" font-size="22" font-weight="600" fill="#0F1B2D" text-anchor="start">How the KV cache works</text>
<text x="32.0" y="70.0" font-family="IBM Plex Sans, Segoe UI, Helvetica, Arial, sans-serif" font-size="14.5" font-weight="400" fill="#5F6979" text-anchor="start">A model writes one word at a time, and every new word has to look back at all the words before it.</text>
<rect x="32.0" y="88.0" width="16.0" height="14.0" rx="2" fill="#B4521A"/>
<text x="56.0" y="100.0" font-family="IBM Plex Sans, Segoe UI, Helvetica, Arial, sans-serif" font-size="13" font-weight="400" fill="#1B2433" text-anchor="start">K and V computed in this step</text>
<rect x="392.0" y="88.0" width="16.0" height="14.0" rx="2" fill="#2F6DB5"/>
<text x="416.0" y="100.0" font-family="IBM Plex Sans, Segoe UI, Helvetica, Arial, sans-serif" font-size="13" font-weight="400" fill="#1B2433" text-anchor="start">K and V read from the cache (computed earlier)</text>
<rect x="28.0" y="116.0" width="462.0" height="270.0" rx="10" fill="#FDFCF9" stroke="#E2DFD6" stroke-width="1.5"/>
<text x="44.0" y="146.0" font-family="IBM Plex Sans, Segoe UI, Helvetica, Arial, sans-serif" font-size="15.5" font-weight="600" fill="#0F1B2D" text-anchor="start">Without a cache: recompute everything</text>
<text x="44.0" y="194.0" font-family="IBM Plex Sans, Segoe UI, Helvetica, Arial, sans-serif" font-size="12.5" font-weight="600" fill="#5F6979" text-anchor="start">step 1</text>
<rect x="90.0" y="166.0" width="54.0" height="20.0" rx="4" fill="#E9E6DD"/>
<text x="117.0" y="181.0" font-family="IBM Plex Sans, Segoe UI, Helvetica, Arial, sans-serif" font-size="11.5" font-weight="600" fill="#1B2433" text-anchor="middle">The</text>
<rect x="90.0" y="190.0" width="26.0" height="22.0" rx="4" fill="#B4521A" opacity="0.9"/>
<text x="103.0" y="206.0" font-family="IBM Plex Sans, Segoe UI, Helvetica, Arial, sans-serif" font-size="12" font-weight="700" fill="#FFFFFF" text-anchor="middle">K</text>
<rect x="118.0" y="190.0" width="26.0" height="22.0" rx="4" fill="#B4521A" opacity="0.9"/>
<text x="131.0" y="206.0" font-family="IBM Plex Sans, Segoe UI, Helvetica, Arial, sans-serif" font-size="12" font-weight="700" fill="#FFFFFF" text-anchor="middle">V</text>
<rect x="150.0" y="166.0" width="54.0" height="20.0" rx="4" fill="#E9E6DD"/>
<text x="177.0" y="181.0" font-family="IBM Plex Sans, Segoe UI, Helvetica, Arial, sans-serif" font-size="11.5" font-weight="600" fill="#1B2433" text-anchor="middle">capital</text>
<rect x="150.0" y="190.0" width="26.0" height="22.0" rx="4" fill="#B4521A" opacity="0.9"/>
<text x="163.0" y="206.0" font-family="IBM Plex Sans, Segoe UI, Helvetica, Arial, sans-serif" font-size="12" font-weight="700" fill="#FFFFFF" text-anchor="middle">K</text>
<rect x="178.0" y="190.0" width="26.0" height="22.0" rx="4" fill="#B4521A" opacity="0.9"/>
<text x="191.0" y="206.0" font-family="IBM Plex Sans, Segoe UI, Helvetica, Arial, sans-serif" font-size="12" font-weight="700" fill="#FFFFFF" text-anchor="middle">V</text>
<rect x="210.0" y="166.0" width="54.0" height="20.0" rx="4" fill="#E9E6DD"/>
<text x="237.0" y="181.0" font-family="IBM Plex Sans, Segoe UI, Helvetica, Arial, sans-serif" font-size="11.5" font-weight="600" fill="#1B2433" text-anchor="middle">of</text>
<rect x="210.0" y="190.0" width="26.0" height="22.0" rx="4" fill="#B4521A" opacity="0.9"/>
<text x="223.0" y="206.0" font-family="IBM Plex Sans, Segoe UI, Helvetica, Arial, sans-serif" font-size="12" font-weight="700" fill="#FFFFFF" text-anchor="middle">K</text>
<rect x="238.0" y="190.0" width="26.0" height="22.0" rx="4" fill="#B4521A" opacity="0.9"/>
<text x="251.0" y="206.0" font-family="IBM Plex Sans, Segoe UI, Helvetica, Arial, sans-serif" font-size="12" font-weight="700" fill="#FFFFFF" text-anchor="middle">V</text>
<line x1="394.0" y1="189.0" x2="412.0" y2="189.0" stroke="#5F6979" stroke-width="1.8" marker-end="url(#arr)"/>
<rect x="416.0" y="175.0" width="62.0" height="28.0" rx="6" fill="#0F1B2D"/>
<text x="447.0" y="194.0" font-family="IBM Plex Sans, Segoe UI, Helvetica, Arial, sans-serif" font-size="12.5" font-weight="700" fill="#F2A35E" text-anchor="middle">France</text>
<text x="44.0" y="256.0" font-family="IBM Plex Sans, Segoe UI, Helvetica, Arial, sans-serif" font-size="12.5" font-weight="600" fill="#5F6979" text-anchor="start">step 2</text>
<rect x="90.0" y="228.0" width="54.0" height="20.0" rx="4" fill="#E9E6DD"/>
<text x="117.0" y="243.0" font-family="IBM Plex Sans, Segoe UI, Helvetica, Arial, sans-serif" font-size="11.5" font-weight="600" fill="#1B2433" text-anchor="middle">The</text>
<rect x="90.0" y="252.0" width="26.0" height="22.0" rx="4" fill="#B4521A" opacity="0.9"/>
<text x="103.0" y="268.0" font-family="IBM Plex Sans, Segoe UI, Helvetica, Arial, sans-serif" font-size="12" font-weight="700" fill="#FFFFFF" text-anchor="middle">K</text>
<rect x="118.0" y="252.0" width="26.0" height="22.0" rx="4" fill="#B4521A" opacity="0.9"/>
<text x="131.0" y="268.0" font-family="IBM Plex Sans, Segoe UI, Helvetica, Arial, sans-serif" font-size="12" font-weight="700" fill="#FFFFFF" text-anchor="middle">V</text>
<rect x="150.0" y="228.0" width="54.0" height="20.0" rx="4" fill="#E9E6DD"/>
<text x="177.0" y="243.0" font-family="IBM Plex Sans, Segoe UI, Helvetica, Arial, sans-serif" font-size="11.5" font-weight="600" fill="#1B2433" text-anchor="middle">capital</text>
<rect x="150.0" y="252.0" width="26.0" height="22.0" rx="4" fill="#B4521A" opacity="0.9"/>
<text x="163.0" y="268.0" font-family="IBM Plex Sans, Segoe UI, Helvetica, Arial, sans-serif" font-size="12" font-weight="700" fill="#FFFFFF" text-anchor="middle">K</text>
<rect x="178.0" y="252.0" width="26.0" height="22.0" rx="4" fill="#B4521A" opacity="0.9"/>
<text x="191.0" y="268.0" font-family="IBM Plex Sans, Segoe UI, Helvetica, Arial, sans-serif" font-size="12" font-weight="700" fill="#FFFFFF" text-anchor="middle">V</text>
<rect x="210.0" y="228.0" width="54.0" height="20.0" rx="4" fill="#E9E6DD"/>
<text x="237.0" y="243.0" font-family="IBM Plex Sans, Segoe UI, Helvetica, Arial, sans-serif" font-size="11.5" font-weight="600" fill="#1B2433" text-anchor="middle">of</text>
<rect x="210.0" y="252.0" width="26.0" height="22.0" rx="4" fill="#B4521A" opacity="0.9"/>
<text x="223.0" y="268.0" font-family="IBM Plex Sans, Segoe UI, Helvetica, Arial, sans-serif" font-size="12" font-weight="700" fill="#FFFFFF" text-anchor="middle">K</text>
<rect x="238.0" y="252.0" width="26.0" height="22.0" rx="4" fill="#B4521A" opacity="0.9"/>
<text x="251.0" y="268.0" font-family="IBM Plex Sans, Segoe UI, Helvetica, Arial, sans-serif" font-size="12" font-weight="700" fill="#FFFFFF" text-anchor="middle">V</text>
<rect x="270.0" y="228.0" width="54.0" height="20.0" rx="4" fill="#E9E6DD"/>
<text x="297.0" y="243.0" font-family="IBM Plex Sans, Segoe UI, Helvetica, Arial, sans-serif" font-size="11.5" font-weight="600" fill="#1B2433" text-anchor="middle">France</text>
<rect x="270.0" y="252.0" width="26.0" height="22.0" rx="4" fill="#B4521A" opacity="0.9"/>
<text x="283.0" y="268.0" font-family="IBM Plex Sans, Segoe UI, Helvetica, Arial, sans-serif" font-size="12" font-weight="700" fill="#FFFFFF" text-anchor="middle">K</text>
<rect x="298.0" y="252.0" width="26.0" height="22.0" rx="4" fill="#B4521A" opacity="0.9"/>
<text x="311.0" y="268.0" font-family="IBM Plex Sans, Segoe UI, Helvetica, Arial, sans-serif" font-size="12" font-weight="700" fill="#FFFFFF" text-anchor="middle">V</text>
<line x1="394.0" y1="251.0" x2="412.0" y2="251.0" stroke="#5F6979" stroke-width="1.8" marker-end="url(#arr)"/>
<rect x="416.0" y="237.0" width="62.0" height="28.0" rx="6" fill="#0F1B2D"/>
<text x="447.0" y="256.0" font-family="IBM Plex Sans, Segoe UI, Helvetica, Arial, sans-serif" font-size="12.5" font-weight="700" fill="#F2A35E" text-anchor="middle">is</text>
<text x="44.0" y="318.0" font-family="IBM Plex Sans, Segoe UI, Helvetica, Arial, sans-serif" font-size="12.5" font-weight="600" fill="#5F6979" text-anchor="start">step 3</text>
<rect x="90.0" y="290.0" width="54.0" height="20.0" rx="4" fill="#E9E6DD"/>
<text x="117.0" y="305.0" font-family="IBM Plex Sans, Segoe UI, Helvetica, Arial, sans-serif" font-size="11.5" font-weight="600" fill="#1B2433" text-anchor="middle">The</text>
<rect x="90.0" y="314.0" width="26.0" height="22.0" rx="4" fill="#B4521A" opacity="0.9"/>
<text x="103.0" y="330.0" font-family="IBM Plex Sans, Segoe UI, Helvetica, Arial, sans-serif" font-size="12" font-weight="700" fill="#FFFFFF" text-anchor="middle">K</text>
<rect x="118.0" y="314.0" width="26.0" height="22.0" rx="4" fill="#B4521A" opacity="0.9"/>
<text x="131.0" y="330.0" font-family="IBM Plex Sans, Segoe UI, Helvetica, Arial, sans-serif" font-size="12" font-weight="700" fill="#FFFFFF" text-anchor="middle">V</text>
<rect x="150.0" y="290.0" width="54.0" height="20.0" rx="4" fill="#E9E6DD"/>
<text x="177.0" y="305.0" font-family="IBM Plex Sans, Segoe UI, Helvetica, Arial, sans-serif" font-size="11.5" font-weight="600" fill="#1B2433" text-anchor="middle">capital</text>
<rect x="150.0" y="314.0" width="26.0" height="22.0" rx="4" fill="#B4521A" opacity="0.9"/>
<text x="163.0" y="330.0" font-family="IBM Plex Sans, Segoe UI, Helvetica, Arial, sans-serif" font-size="12" font-weight="700" fill="#FFFFFF" text-anchor="middle">K</text>
<rect x="178.0" y="314.0" width="26.0" height="22.0" rx="4" fill="#B4521A" opacity="0.9"/>
<text x="191.0" y="330.0" font-family="IBM Plex Sans, Segoe UI, Helvetica, Arial, sans-serif" font-size="12" font-weight="700" fill="#FFFFFF" text-anchor="middle">V</text>
<rect x="210.0" y="290.0" width="54.0" height="20.0" rx="4" fill="#E9E6DD"/>
<text x="237.0" y="305.0" font-family="IBM Plex Sans, Segoe UI, Helvetica, Arial, sans-serif" font-size="11.5" font-weight="600" fill="#1B2433" text-anchor="middle">of</text>
<rect x="210.0" y="314.0" width="26.0" height="22.0" rx="4" fill="#B4521A" opacity="0.9"/>
<text x="223.0" y="330.0" font-family="IBM Plex Sans, Segoe UI, Helvetica, Arial, sans-serif" font-size="12" font-weight="700" fill="#FFFFFF" text-anchor="middle">K</text>
<rect x="238.0" y="314.0" width="26.0" height="22.0" rx="4" fill="#B4521A" opacity="0.9"/>
<text x="251.0" y="330.0" font-family="IBM Plex Sans, Segoe UI, Helvetica, Arial, sans-serif" font-size="12" font-weight="700" fill="#FFFFFF" text-anchor="middle">V</text>
<rect x="270.0" y="290.0" width="54.0" height="20.0" rx="4" fill="#E9E6DD"/>
<text x="297.0" y="305.0" font-family="IBM Plex Sans, Segoe UI, Helvetica, Arial, sans-serif" font-size="11.5" font-weight="600" fill="#1B2433" text-anchor="middle">France</text>
<rect x="270.0" y="314.0" width="26.0" height="22.0" rx="4" fill="#B4521A" opacity="0.9"/>
<text x="283.0" y="330.0" font-family="IBM Plex Sans, Segoe UI, Helvetica, Arial, sans-serif" font-size="12" font-weight="700" fill="#FFFFFF" text-anchor="middle">K</text>
<rect x="298.0" y="314.0" width="26.0" height="22.0" rx="4" fill="#B4521A" opacity="0.9"/>
<text x="311.0" y="330.0" font-family="IBM Plex Sans, Segoe UI, Helvetica, Arial, sans-serif" font-size="12" font-weight="700" fill="#FFFFFF" text-anchor="middle">V</text>
<rect x="330.0" y="290.0" width="54.0" height="20.0" rx="4" fill="#E9E6DD"/>
<text x="357.0" y="305.0" font-family="IBM Plex Sans, Segoe UI, Helvetica, Arial, sans-serif" font-size="11.5" font-weight="600" fill="#1B2433" text-anchor="middle">is</text>
<rect x="330.0" y="314.0" width="26.0" height="22.0" rx="4" fill="#B4521A" opacity="0.9"/>
<text x="343.0" y="330.0" font-family="IBM Plex Sans, Segoe UI, Helvetica, Arial, sans-serif" font-size="12" font-weight="700" fill="#FFFFFF" text-anchor="middle">K</text>
<rect x="358.0" y="314.0" width="26.0" height="22.0" rx="4" fill="#B4521A" opacity="0.9"/>
<text x="371.0" y="330.0" font-family="IBM Plex Sans, Segoe UI, Helvetica, Arial, sans-serif" font-size="12" font-weight="700" fill="#FFFFFF" text-anchor="middle">V</text>
<line x1="394.0" y1="313.0" x2="412.0" y2="313.0" stroke="#5F6979" stroke-width="1.8" marker-end="url(#arr)"/>
<rect x="416.0" y="299.0" width="62.0" height="28.0" rx="6" fill="#0F1B2D"/>
<text x="447.0" y="318.0" font-family="IBM Plex Sans, Segoe UI, Helvetica, Arial, sans-serif" font-size="12.5" font-weight="700" fill="#F2A35E" text-anchor="middle">Paris</text>
<text x="44.0" y="370.0" font-family="IBM Plex Sans, Segoe UI, Helvetica, Arial, sans-serif" font-size="13" font-weight="700" fill="#B4521A" text-anchor="start">K and V computed: 3 + 4 + 5 = 12, and it keeps growing</text>
<rect x="510.0" y="116.0" width="462.0" height="270.0" rx="10" fill="#FDFCF9" stroke="#E2DFD6" stroke-width="1.5"/>
<text x="526.0" y="146.0" font-family="IBM Plex Sans, Segoe UI, Helvetica, Arial, sans-serif" font-size="15.5" font-weight="600" fill="#0F1B2D" text-anchor="start">With a KV cache: compute once, reuse</text>
<text x="526.0" y="194.0" font-family="IBM Plex Sans, Segoe UI, Helvetica, Arial, sans-serif" font-size="12.5" font-weight="600" fill="#5F6979" text-anchor="start">step 1</text>
<rect x="572.0" y="166.0" width="54.0" height="20.0" rx="4" fill="#E9E6DD"/>
<text x="599.0" y="181.0" font-family="IBM Plex Sans, Segoe UI, Helvetica, Arial, sans-serif" font-size="11.5" font-weight="600" fill="#1B2433" text-anchor="middle">The</text>
<rect x="572.0" y="190.0" width="26.0" height="22.0" rx="4" fill="#B4521A" opacity="0.9"/>
<text x="585.0" y="206.0" font-family="IBM Plex Sans, Segoe UI, Helvetica, Arial, sans-serif" font-size="12" font-weight="700" fill="#FFFFFF" text-anchor="middle">K</text>
<rect x="600.0" y="190.0" width="26.0" height="22.0" rx="4" fill="#B4521A" opacity="0.9"/>
<text x="613.0" y="206.0" font-family="IBM Plex Sans, Segoe UI, Helvetica, Arial, sans-serif" font-size="12" font-weight="700" fill="#FFFFFF" text-anchor="middle">V</text>
<rect x="632.0" y="166.0" width="54.0" height="20.0" rx="4" fill="#E9E6DD"/>
<text x="659.0" y="181.0" font-family="IBM Plex Sans, Segoe UI, Helvetica, Arial, sans-serif" font-size="11.5" font-weight="600" fill="#1B2433" text-anchor="middle">capital</text>
<rect x="632.0" y="190.0" width="26.0" height="22.0" rx="4" fill="#B4521A" opacity="0.9"/>
<text x="645.0" y="206.0" font-family="IBM Plex Sans, Segoe UI, Helvetica, Arial, sans-serif" font-size="12" font-weight="700" fill="#FFFFFF" text-anchor="middle">K</text>
<rect x="660.0" y="190.0" width="26.0" height="22.0" rx="4" fill="#B4521A" opacity="0.9"/>
<text x="673.0" y="206.0" font-family="IBM Plex Sans, Segoe UI, Helvetica, Arial, sans-serif" font-size="12" font-weight="700" fill="#FFFFFF" text-anchor="middle">V</text>
<rect x="692.0" y="166.0" width="54.0" height="20.0" rx="4" fill="#E9E6DD"/>
<text x="719.0" y="181.0" font-family="IBM Plex Sans, Segoe UI, Helvetica, Arial, sans-serif" font-size="11.5" font-weight="600" fill="#1B2433" text-anchor="middle">of</text>
<rect x="692.0" y="190.0" width="26.0" height="22.0" rx="4" fill="#B4521A" opacity="0.9"/>
<text x="705.0" y="206.0" font-family="IBM Plex Sans, Segoe UI, Helvetica, Arial, sans-serif" font-size="12" font-weight="700" fill="#FFFFFF" text-anchor="middle">K</text>
<rect x="720.0" y="190.0" width="26.0" height="22.0" rx="4" fill="#B4521A" opacity="0.9"/>
<text x="733.0" y="206.0" font-family="IBM Plex Sans, Segoe UI, Helvetica, Arial, sans-serif" font-size="12" font-weight="700" fill="#FFFFFF" text-anchor="middle">V</text>
<line x1="876.0" y1="189.0" x2="894.0" y2="189.0" stroke="#5F6979" stroke-width="1.8" marker-end="url(#arr)"/>
<rect x="898.0" y="175.0" width="62.0" height="28.0" rx="6" fill="#0F1B2D"/>
<text x="929.0" y="194.0" font-family="IBM Plex Sans, Segoe UI, Helvetica, Arial, sans-serif" font-size="12.5" font-weight="700" fill="#F2A35E" text-anchor="middle">France</text>
<text x="526.0" y="256.0" font-family="IBM Plex Sans, Segoe UI, Helvetica, Arial, sans-serif" font-size="12.5" font-weight="600" fill="#5F6979" text-anchor="start">step 2</text>
<rect x="572.0" y="228.0" width="54.0" height="20.0" rx="4" fill="#E9E6DD"/>
<text x="599.0" y="243.0" font-family="IBM Plex Sans, Segoe UI, Helvetica, Arial, sans-serif" font-size="11.5" font-weight="600" fill="#1B2433" text-anchor="middle">The</text>
<rect x="572.0" y="252.0" width="26.0" height="22.0" rx="4" fill="#2F6DB5" opacity="0.9"/>
<text x="585.0" y="268.0" font-family="IBM Plex Sans, Segoe UI, Helvetica, Arial, sans-serif" font-size="12" font-weight="700" fill="#FFFFFF" text-anchor="middle">K</text>
<rect x="600.0" y="252.0" width="26.0" height="22.0" rx="4" fill="#2F6DB5" opacity="0.9"/>
<text x="613.0" y="268.0" font-family="IBM Plex Sans, Segoe UI, Helvetica, Arial, sans-serif" font-size="12" font-weight="700" fill="#FFFFFF" text-anchor="middle">V</text>
<rect x="632.0" y="228.0" width="54.0" height="20.0" rx="4" fill="#E9E6DD"/>
<text x="659.0" y="243.0" font-family="IBM Plex Sans, Segoe UI, Helvetica, Arial, sans-serif" font-size="11.5" font-weight="600" fill="#1B2433" text-anchor="middle">capital</text>
<rect x="632.0" y="252.0" width="26.0" height="22.0" rx="4" fill="#2F6DB5" opacity="0.9"/>
<text x="645.0" y="268.0" font-family="IBM Plex Sans, Segoe UI, Helvetica, Arial, sans-serif" font-size="12" font-weight="700" fill="#FFFFFF" text-anchor="middle">K</text>
<rect x="660.0" y="252.0" width="26.0" height="22.0" rx="4" fill="#2F6DB5" opacity="0.9"/>
<text x="673.0" y="268.0" font-family="IBM Plex Sans, Segoe UI, Helvetica, Arial, sans-serif" font-size="12" font-weight="700" fill="#FFFFFF" text-anchor="middle">V</text>
<rect x="692.0" y="228.0" width="54.0" height="20.0" rx="4" fill="#E9E6DD"/>
<text x="719.0" y="243.0" font-family="IBM Plex Sans, Segoe UI, Helvetica, Arial, sans-serif" font-size="11.5" font-weight="600" fill="#1B2433" text-anchor="middle">of</text>
<rect x="692.0" y="252.0" width="26.0" height="22.0" rx="4" fill="#2F6DB5" opacity="0.9"/>
<text x="705.0" y="268.0" font-family="IBM Plex Sans, Segoe UI, Helvetica, Arial, sans-serif" font-size="12" font-weight="700" fill="#FFFFFF" text-anchor="middle">K</text>
<rect x="720.0" y="252.0" width="26.0" height="22.0" rx="4" fill="#2F6DB5" opacity="0.9"/>
<text x="733.0" y="268.0" font-family="IBM Plex Sans, Segoe UI, Helvetica, Arial, sans-serif" font-size="12" font-weight="700" fill="#FFFFFF" text-anchor="middle">V</text>
<rect x="752.0" y="228.0" width="54.0" height="20.0" rx="4" fill="#E9E6DD"/>
<text x="779.0" y="243.0" font-family="IBM Plex Sans, Segoe UI, Helvetica, Arial, sans-serif" font-size="11.5" font-weight="600" fill="#1B2433" text-anchor="middle">France</text>
<rect x="752.0" y="252.0" width="26.0" height="22.0" rx="4" fill="#B4521A" opacity="0.9"/>
<text x="765.0" y="268.0" font-family="IBM Plex Sans, Segoe UI, Helvetica, Arial, sans-serif" font-size="12" font-weight="700" fill="#FFFFFF" text-anchor="middle">K</text>
<rect x="780.0" y="252.0" width="26.0" height="22.0" rx="4" fill="#B4521A" opacity="0.9"/>
<text x="793.0" y="268.0" font-family="IBM Plex Sans, Segoe UI, Helvetica, Arial, sans-serif" font-size="12" font-weight="700" fill="#FFFFFF" text-anchor="middle">V</text>
<line x1="876.0" y1="251.0" x2="894.0" y2="251.0" stroke="#5F6979" stroke-width="1.8" marker-end="url(#arr)"/>
<rect x="898.0" y="237.0" width="62.0" height="28.0" rx="6" fill="#0F1B2D"/>
<text x="929.0" y="256.0" font-family="IBM Plex Sans, Segoe UI, Helvetica, Arial, sans-serif" font-size="12.5" font-weight="700" fill="#F2A35E" text-anchor="middle">is</text>
<text x="526.0" y="318.0" font-family="IBM Plex Sans, Segoe UI, Helvetica, Arial, sans-serif" font-size="12.5" font-weight="600" fill="#5F6979" text-anchor="start">step 3</text>
<rect x="572.0" y="290.0" width="54.0" height="20.0" rx="4" fill="#E9E6DD"/>
<text x="599.0" y="305.0" font-family="IBM Plex Sans, Segoe UI, Helvetica, Arial, sans-serif" font-size="11.5" font-weight="600" fill="#1B2433" text-anchor="middle">The</text>
<rect x="572.0" y="314.0" width="26.0" height="22.0" rx="4" fill="#2F6DB5" opacity="0.9"/>
<text x="585.0" y="330.0" font-family="IBM Plex Sans, Segoe UI, Helvetica, Arial, sans-serif" font-size="12" font-weight="700" fill="#FFFFFF" text-anchor="middle">K</text>
<rect x="600.0" y="314.0" width="26.0" height="22.0" rx="4" fill="#2F6DB5" opacity="0.9"/>
<text x="613.0" y="330.0" font-family="IBM Plex Sans, Segoe UI, Helvetica, Arial, sans-serif" font-size="12" font-weight="700" fill="#FFFFFF" text-anchor="middle">V</text>
<rect x="632.0" y="290.0" width="54.0" height="20.0" rx="4" fill="#E9E6DD"/>
<text x="659.0" y="305.0" font-family="IBM Plex Sans, Segoe UI, Helvetica, Arial, sans-serif" font-size="11.5" font-weight="600" fill="#1B2433" text-anchor="middle">capital</text>
<rect x="632.0" y="314.0" width="26.0" height="22.0" rx="4" fill="#2F6DB5" opacity="0.9"/>
<text x="645.0" y="330.0" font-family="IBM Plex Sans, Segoe UI, Helvetica, Arial, sans-serif" font-size="12" font-weight="700" fill="#FFFFFF" text-anchor="middle">K</text>
<rect x="660.0" y="314.0" width="26.0" height="22.0" rx="4" fill="#2F6DB5" opacity="0.9"/>
<text x="673.0" y="330.0" font-family="IBM Plex Sans, Segoe UI, Helvetica, Arial, sans-serif" font-size="12" font-weight="700" fill="#FFFFFF" text-anchor="middle">V</text>
<rect x="692.0" y="290.0" width="54.0" height="20.0" rx="4" fill="#E9E6DD"/>
<text x="719.0" y="305.0" font-family="IBM Plex Sans, Segoe UI, Helvetica, Arial, sans-serif" font-size="11.5" font-weight="600" fill="#1B2433" text-anchor="middle">of</text>
<rect x="692.0" y="314.0" width="26.0" height="22.0" rx="4" fill="#2F6DB5" opacity="0.9"/>
<text x="705.0" y="330.0" font-family="IBM Plex Sans, Segoe UI, Helvetica, Arial, sans-serif" font-size="12" font-weight="700" fill="#FFFFFF" text-anchor="middle">K</text>
<rect x="720.0" y="314.0" width="26.0" height="22.0" rx="4" fill="#2F6DB5" opacity="0.9"/>
<text x="733.0" y="330.0" font-family="IBM Plex Sans, Segoe UI, Helvetica, Arial, sans-serif" font-size="12" font-weight="700" fill="#FFFFFF" text-anchor="middle">V</text>
<rect x="752.0" y="290.0" width="54.0" height="20.0" rx="4" fill="#E9E6DD"/>
<text x="779.0" y="305.0" font-family="IBM Plex Sans, Segoe UI, Helvetica, Arial, sans-serif" font-size="11.5" font-weight="600" fill="#1B2433" text-anchor="middle">France</text>
<rect x="752.0" y="314.0" width="26.0" height="22.0" rx="4" fill="#2F6DB5" opacity="0.9"/>
<text x="765.0" y="330.0" font-family="IBM Plex Sans, Segoe UI, Helvetica, Arial, sans-serif" font-size="12" font-weight="700" fill="#FFFFFF" text-anchor="middle">K</text>
<rect x="780.0" y="314.0" width="26.0" height="22.0" rx="4" fill="#2F6DB5" opacity="0.9"/>
<text x="793.0" y="330.0" font-family="IBM Plex Sans, Segoe UI, Helvetica, Arial, sans-serif" font-size="12" font-weight="700" fill="#FFFFFF" text-anchor="middle">V</text>
<rect x="812.0" y="290.0" width="54.0" height="20.0" rx="4" fill="#E9E6DD"/>
<text x="839.0" y="305.0" font-family="IBM Plex Sans, Segoe UI, Helvetica, Arial, sans-serif" font-size="11.5" font-weight="600" fill="#1B2433" text-anchor="middle">is</text>
<rect x="812.0" y="314.0" width="26.0" height="22.0" rx="4" fill="#B4521A" opacity="0.9"/>
<text x="825.0" y="330.0" font-family="IBM Plex Sans, Segoe UI, Helvetica, Arial, sans-serif" font-size="12" font-weight="700" fill="#FFFFFF" text-anchor="middle">K</text>
<rect x="840.0" y="314.0" width="26.0" height="22.0" rx="4" fill="#B4521A" opacity="0.9"/>
<text x="853.0" y="330.0" font-family="IBM Plex Sans, Segoe UI, Helvetica, Arial, sans-serif" font-size="12" font-weight="700" fill="#FFFFFF" text-anchor="middle">V</text>
<line x1="876.0" y1="313.0" x2="894.0" y2="313.0" stroke="#5F6979" stroke-width="1.8" marker-end="url(#arr)"/>
<rect x="898.0" y="299.0" width="62.0" height="28.0" rx="6" fill="#0F1B2D"/>
<text x="929.0" y="318.0" font-family="IBM Plex Sans, Segoe UI, Helvetica, Arial, sans-serif" font-size="12.5" font-weight="700" fill="#F2A35E" text-anchor="middle">Paris</text>
<text x="526.0" y="370.0" font-family="IBM Plex Sans, Segoe UI, Helvetica, Arial, sans-serif" font-size="13" font-weight="700" fill="#3C8C5A" text-anchor="start">K and V computed: 3 + 1 + 1 = 5, one per new word</text>
<rect x="28.0" y="400.0" width="308.0" height="86.0" rx="10" fill="#FDFCF9" stroke="#E2DFD6" stroke-width="1.5"/>
<rect x="28.0" y="400.0" width="6.0" height="86.0" rx="2" fill="#B4521A"/>
<text x="46.0" y="422.0" font-family="IBM Plex Sans, Segoe UI, Helvetica, Arial, sans-serif" font-size="14" font-weight="700" fill="#0F1B2D" text-anchor="start">Query (q)</text>
<text x="46.0" y="442.0" font-family="IBM Plex Sans, Segoe UI, Helvetica, Arial, sans-serif" font-size="12" font-weight="400" fill="#3A4556" text-anchor="start">What the newest word is looking for. Made</text>
<text x="46.0" y="457.6" font-family="IBM Plex Sans, Segoe UI, Helvetica, Arial, sans-serif" font-size="12" font-weight="400" fill="#3A4556" text-anchor="start">fresh at every step, never stored.</text>
<rect x="346.0" y="400.0" width="308.0" height="86.0" rx="10" fill="#FDFCF9" stroke="#E2DFD6" stroke-width="1.5"/>
<rect x="346.0" y="400.0" width="6.0" height="86.0" rx="2" fill="#2F6DB5"/>
<text x="364.0" y="422.0" font-family="IBM Plex Sans, Segoe UI, Helvetica, Arial, sans-serif" font-size="14" font-weight="700" fill="#0F1B2D" text-anchor="start">Key (k)</text>
<text x="364.0" y="442.0" font-family="IBM Plex Sans, Segoe UI, Helvetica, Arial, sans-serif" font-size="12" font-weight="400" fill="#3A4556" text-anchor="start">A label saying what an earlier word is about.</text>
<text x="364.0" y="457.6" font-family="IBM Plex Sans, Segoe UI, Helvetica, Arial, sans-serif" font-size="12" font-weight="400" fill="#3A4556" text-anchor="start">Compared with q to decide where to look.</text>
<rect x="664.0" y="400.0" width="308.0" height="86.0" rx="10" fill="#FDFCF9" stroke="#E2DFD6" stroke-width="1.5"/>
<rect x="664.0" y="400.0" width="6.0" height="86.0" rx="2" fill="#2F6DB5"/>
<text x="682.0" y="422.0" font-family="IBM Plex Sans, Segoe UI, Helvetica, Arial, sans-serif" font-size="14" font-weight="700" fill="#0F1B2D" text-anchor="start">Value (v)</text>
<text x="682.0" y="442.0" font-family="IBM Plex Sans, Segoe UI, Helvetica, Arial, sans-serif" font-size="12" font-weight="400" fill="#3A4556" text-anchor="start">The information an earlier word hands over,</text>
<text x="682.0" y="457.6" font-family="IBM Plex Sans, Segoe UI, Helvetica, Arial, sans-serif" font-size="12" font-weight="400" fill="#3A4556" text-anchor="start">weighted by how well its key matched.</text>
<text x="32.0" y="518.0" font-family="IBM Plex Sans, Segoe UI, Helvetica, Arial, sans-serif" font-size="13" font-weight="400" fill="#5F6979" text-anchor="start" font-style="italic">The price: one K and one V per word, in every layer and head. Llama-3.1-8B: 128 KB per word, 16 GB at 128k words.</text>
</svg>
